Coordinates
version=1
nRows=43
nColumns=12
inDegrees=yes

Units are S.I. units (second, meters, Newtons, ...)
Angles are in degrees

endheader
time	SC_y	SC_z	SC_x	AC_y	AC_z	AC_x	GH_y	GH_z	GH_yy	EL_x	PS_y
       0.0              -53.18          24.94           18.7          63.58         -6.439          -3.05         -30.32          6.711         -178.3          109.0          136.4
    0.0396              -53.18          24.94           18.7          63.58         -6.439         -3.049          -30.3          6.715         -178.2          109.0          136.4
   0.07919              -53.18          24.94           18.7          63.58          -6.44         -3.048         -30.29          6.718         -178.2          109.0          136.4
    0.1188              -53.18          24.94           18.7          63.57          -6.44         -3.046         -30.27          6.722         -178.1          109.0          136.4
    0.1584              -53.18          24.93           18.7          63.57          -6.44         -3.045         -30.25          6.726         -178.1          109.0          136.3
     0.198              -53.18          24.93           18.7          63.57         -6.441         -3.043         -30.23          6.731         -178.0          109.0          136.3
    0.2376              -53.18          24.93           18.7          63.56         -6.441         -3.041         -30.21          6.735         -178.0          109.0          136.3
    0.2772              -53.18          24.93           18.7          63.56         -6.442         -3.039         -30.19           6.74         -177.9          109.0          136.3
    0.3168              -53.17          24.93           18.7          63.55         -6.442         -3.038         -30.17          6.745         -177.9          109.0          136.3
    0.3564              -53.17          24.93           18.7          63.55         -6.443         -3.035         -30.14          6.751         -177.8          109.0          136.2
     0.396              -53.17          24.93           18.7          63.54         -6.443         -3.033         -30.11          6.757         -177.7          109.0          136.2
    0.4356              -53.17          24.93           18.7          63.54         -6.444         -3.031         -30.08          6.764         -177.6          109.0          136.2
    0.4752              -53.17          24.93           18.7          63.53         -6.445         -3.028         -30.05          6.771         -177.5          109.0          136.1
    0.5148              -53.17          24.93           18.7          63.53         -6.445         -3.025         -30.02          6.779         -177.4          109.0          136.1
    0.5544              -53.16          24.92           18.7          63.52         -6.446         -3.022         -29.98          6.787         -177.3          109.0          136.0
     0.594              -53.16          24.92           18.7          63.51         -6.447         -3.019         -29.94          6.796         -177.2          109.0          136.0
    0.6335              -53.16          24.92           18.7           63.5         -6.448         -3.015          -29.9          6.806         -177.1          109.0          136.0
    0.6731              -53.16          24.92           18.7           63.5         -6.449         -3.011         -29.85          6.816         -177.0          109.0          135.9
    0.7127              -53.16          24.92           18.7          63.49          -6.45         -3.007          -29.8          6.828         -176.8          109.0          135.8
    0.7523              -53.15          24.92          18.71          63.48         -6.451         -3.002         -29.75          6.841         -176.7          109.0          135.8
    0.7919              -53.15          24.91          18.71          63.46         -6.453         -2.997         -29.68          6.855         -176.5          109.0          135.7
    0.8315              -53.15          24.91          18.71          63.45         -6.454         -2.991         -29.62           6.87         -176.3          109.0          135.6
    0.8711              -53.14          24.91          18.71          63.44         -6.456         -2.985         -29.54          6.887         -176.1          109.1          135.6
    0.9107              -53.14           24.9          18.71          63.42         -6.457         -2.978         -29.46          6.906         -175.9          109.1          135.5
    0.9503              -53.13           24.9          18.71           63.4         -6.459          -2.97         -29.37          6.927         -175.6          109.1          135.4
    0.9899              -53.13           24.9          18.71          63.39         -6.462         -2.961         -29.26          6.951         -175.3          109.1          135.3
      1.03              -53.12          24.89          18.71          63.36         -6.464         -2.952         -29.15          6.977         -175.0          109.1          135.1
     1.069              -53.11          24.89          18.71          63.34         -6.467         -2.941         -29.02          7.006         -174.6          109.1          135.0
     1.109              -53.11          24.88          18.71          63.31          -6.47         -2.928         -28.87           7.04         -174.2          109.1          134.8
     1.148               -53.1          24.88          18.71          63.28         -6.474         -2.914          -28.7          7.077         -173.7          109.1          134.6
     1.188              -53.09          24.87          18.72          63.25         -6.478         -2.898         -28.51           7.12         -173.2          109.1          134.4
     1.227              -53.08          24.86          18.72          63.21         -6.483          -2.88          -28.3           7.17         -172.6          109.1          134.2
     1.267              -53.06          24.85          18.72          63.16         -6.488         -2.859         -28.04          7.227         -171.9          109.1          133.9
     1.307              -53.05          24.84          18.72           63.1         -6.494         -2.834         -27.75          7.294         -171.1          109.1          133.6
     1.346              -53.03          24.83          18.73          63.04         -6.502         -2.805         -27.41          7.371         -170.1          109.1          133.2
     1.386              -53.01          24.81          18.73          62.97         -6.511         -2.771          -27.0          7.463         -169.0          109.1          132.8
     1.425              -52.98          24.79          18.73          62.88         -6.521         -2.731         -26.53          7.572         -167.6          109.1          132.2
     1.465              -52.95          24.77          18.74          62.77         -6.533         -2.682         -25.95          7.703         -166.0          109.1          131.6
     1.505              -52.91          24.74          18.75          62.64         -6.548         -2.623         -25.25          7.861         -164.0          109.2          130.8
     1.544              -52.87          24.71          18.75          62.48         -6.567         -2.552          -24.4          8.054         -161.6          109.2          129.9
     1.584              -52.81          24.67          18.76          62.29          -6.59         -2.463         -23.36          8.292         -158.7          109.2          128.7
     1.623              -52.74          24.62          18.77          62.04         -6.618         -2.353         -22.05          8.589         -155.0          109.3          127.3
     1.663              -52.66          24.56          18.79          61.74         -6.654         -2.214          -20.4          8.963         -150.4          109.3          125.5
